<svg version="1.2" xmlns="http://www.w3.org/2000/svg" viewBox="0 0 65 56" width="65" height="56"><defs><clipPath clipPathUnits="userSpaceOnUse" id="cp1"><path d="m-54-14h1920v1080h-1920z" /></clipPath></defs><style>.s0{fill:#747d42}.s1{fill:#ffffff}</style><g clip-path="url(#cp1)"><path class="s0" d="m22 53.9c-6.1-1.1-20-1.1-20-1.1c0-24.8-2.2-15-2-31.6c0.1-6 1.6-20.2 1.6-20.2c0 0 13.6-2.6 31.3 0.6c8.9 1.6 21.9-2.9 29.3-1c0 0 3.3 15.8 1.9 24.4c-1.7 10.7-1.5 28.6-1.5 28.6c-5.7-1-11.5-0.9-17.2 0.1c-10.5 2-15.7 1.5-23.4 0.2" /><path fill-rule="evenodd" class="s1" d="m7 45.2h0.9c0.5 0 1 0 1.4 0.3c0.3 0.2 0.4 0.5 0.4 0.8c0 0.4-0.2 0.7-0.5 0.9c0.5 0.1 0.8 0.5 0.8 1.1c0 0.4-0.2 0.8-0.6 1q-0.5 0.3-1.2 0.3h-1.2zm0.9 1.7h0.2c0.2 0 0.8 0 0.8-0.5c0-0.2-0.2-0.5-0.7-0.5h-0.3zm0 2h0.4c0.1 0 0.8 0 0.8-0.6c0-0.2-0.1-0.6-0.8-0.6h-0.4z" /><path fill-rule="evenodd" class="s1" d="m13.3 45.2h0.6l2 4.4h-1l-0.5-1.2h-1.6l-0.5 1.2h-0.9zm-0.2 2.5h1l-0.5-1.4z" /><path class="s1" d="m17.7 45.2h0.8v1.9l1.5-1.9h1l-1.8 2.1l1.8 2.3h-1l-1.4-2v2h-0.9z" /><path class="s1" d="m22.6 45.2h2.5v0.7h-1.7v1.1h1.6v0.8h-1.6v1h1.7v0.8h-2.5z" /><path fill-rule="evenodd" class="s1" d="m27.1 45.2h1.4c0.4-0.1 0.7 0 1.1 0.3c0.3 0.2 0.5 0.6 0.5 1c0 0.4-0.2 0.8-0.4 1.1q-0.4 0.3-0.8 0.3l1.2 1.7h-1l-1.2-1.7v1.7h-0.8zm0.8 2.1h0.5c0.7 0 0.9-0.5 0.9-0.7c0-0.2-0.2-0.7-0.9-0.7h-0.5z" /><path class="s1" d="m33 47.9l-1.5-2.7h0.9l1 2l1-2h0.9l-1.5 2.7v1.7h-0.8z" /><path class="s1" d="m44.2 48.3c-0.4 0.9-1.2 1.4-2.1 1.4c-1.3 0-2.4-1.1-2.4-2.4c0.1-1 0.9-2 1.9-2.2c1.1-0.2 2.2 0.3 2.6 1.3h-0.9c-0.3-0.4-0.8-0.6-1.3-0.6c-0.8 0.1-1.4 0.7-1.4 1.6c0 0.8 0.6 1.5 1.5 1.5c0.4 0 0.8-0.2 1.1-0.6z" /><path fill-rule="evenodd" class="s1" d="m47.3 45.2h0.6l1.9 4.4h-0.9l-0.5-1.2h-1.6l-0.5 1.2h-0.9zm-0.2 2.5h1l-0.5-1.4z" /><path class="s1" d="m51.5 45.2h2.3v0.7h-1.4v1.1h1.4v0.8h-1.4v1.8h-0.9z" /><path class="s1" d="m55.7 45.2h2.5v0.7h-1.6v1.1h1.5v0.8h-1.5v1h1.6v0.8h-2.5z" /><path class="s1" d="m33.2 23.5c-9.6 4.2-12.7 1.3-14-0.1c-1-1-1.6-2.2-1.4-3.8c0.4-2.9 1.9-4.2 3-4.9c0.6 2.7 2.2 3.2 2.2 3.2c-0.6-1.3-0.9-2.6-0.9-4c0 0 1.3-2.4 3.3-2.5c0.4 2.5 2.5 3.1 2.5 3.1c-0.9-1.3-1.3-2.7-1.2-4.2c0-0.2 1.8-1.8 4.6-2.2c0 0 0.2 2.4 1.2 3.8c-1.4-0.7-1.7-2.8-1.8-3.1c0-0.2-2.9 1.8-3 2.1c-0.7 1.7 1.1 4.4 1.1 4.4c0 0-3-0.2-3.9-3.1c-0.4 0.1-1.9 1.5-2 2.1c0.1 1.9 1 4.5 1 4.5c0 0-2.8-0.4-3.4-2.7c-0.1-0.1-1.6 1.3-1.4 3.5c0.2 2.6 4.4 6.6 14.6 2.9c0 0 1.9 0-0.5 1z" /><path class="s1" d="m45.8 10.1c0 0.3-0.3 2.2-1.1 2.7c-0.2 0.2 3.1-5-4.5-5.6q0.1-0.5-0.1-1c2.1 0.3 5.6 1.2 5.7 3.9z" /><path class="s1" d="m45.7 13.7c1 0.6 1.2 2.1 0.5 3.4c-0.3 0.6-0.7 1-1.3 1.3q0-0.2 0-0.4q0.3-0.4 0.6-0.8c0.6-1.1 0.5-2.3-0.3-2.7c-0.3-0.2-0.7-0.2-1.1-0.1v-0.2q-0.1-0.2-0.2-0.4c0.5-0.3 1.2-0.3 1.7-0.1" /><path class="s1" d="m44.1 14.3c1.7 3.8 0.7 8.6-2.6 10.1c-3.4 1.5-7.8-1-9.7-5.2c-0.1-0.2 1.7 0.4 2.1 0.4c2.4 4.4 4.8 5 6.9 4.2c3.8-1.4 4.3-5.5 2.7-10.5q0.4 0.4 0.6 1" /><path class="s1" d="m33.1 14.9c-0.7 0.5-1.6 2.8-0.4 3.9c1 1 3 1 5.3 0.3c1.8-0.5 4-1.9 4.9-3.2c0.9-1.2 0.7-2.1 0.5-2.6c-0.2-0.3-1.6-1.1-1.6-1.1c0 0 0.4-0.1 1.4 0.6c0.7 0.5 0.8 1.7 0.3 2.8c-0.6 1.3-2.3 2.8-4 3.6c-1.9 0.9-4.1 1.1-6.2 0.7c-1.5-0.2-1.8-1.1-1.9-1.5c-0.3-1 0.6-3 1.7-3.5z" /><path class="s1" d="m36.3 5.9c1 1 2.4 1.4 3.1 2.6c0.9 1.8 0.9 3.6-0.2 6.2c-0.1-1 0.6-3.9-1.8-6c-2.6-2.4-3-4.7-2-6c-0.3 1.2 0.1 2.4 0.9 3.2z" /><path class="s1" d="m34.1 9.4c1.1 0.8 2.4 1.3 3 2.5c0.9 1.8 0.9 3.6-0.1 6.3c-0.1-1 0.5-3.9-1.8-6.1c-2.7-2.4-2.4-4.3-2-5.9c0-0.1-0.5 2.1 0.9 3.2z" /><path fill-rule="evenodd" class="s1" d="m16.7 33.2c0.6 0.3 1.5 1.4 1.5 2.2c0 0.8-1.2 1.8-1.6 2.1c-0.3 0.2-3.1 1.8-3.2 1.9c-0.1 0-5.1 1.7-5.4 1.8c-1.4 1.1-1.6 0.6-1.8 0c-0.2-0.6-0.1-4.8-0.1-5.4c0-0.7 0.4-4.4 0.4-4.7q0-0.4-0.1-0.8c0 0-0.5-0.9-0.5-1.4c0.1-0.6 1.1-1.2 1.1-1.2q0-0.3 0.2-0.6c0.1-0.2 2.3-1.6 2.3-1q-0.1 0.6 0 1.2c1.8-0.8 4.5-1.1 5.4-1c0.8 0.1 0.9 0.6 1 0.9c0 0.4 0.2 0.8-0.3 1.4c-0.4 0.5-4.1 3.5-4.3 3.7q-0.5 0.4-1 0.8c-0.3 0.3-0.1 0.8 0.6 0.5q1.4-0.4 2.8-0.7c1-0.2 2.1-0.1 3 0.3m-7.5-4.2c-0.5 1.3-0.8 2.6-0.9 3.9c0 0 4.2-2.8 4.6-3.1c0.4-0.3 2.7-2.1 2.2-2.4c-0.6-0.4-1.2-0.3-2.5 0q-1.8 0.6-3.4 1.6zm7.2 5.9c-0.2-0.4-1.5-0.2-1.9-0.1c-0.4 0-3.1 0.5-4 1.5c-0.3 0.3-0.5 0.7-0.5 1.2c-0.1 0.5 0.1 0.9 0.4 1.2q0.3 0.2 0.7 0.2c0.3 0 2.1-0.8 2.4-1c0.3-0.2 1.4-0.6 2.2-1.7c0.2-0.3 0.8-0.9 0.7-1.3z" /><path fill-rule="evenodd" class="s1" d="m27.4 34.9c0.1 1.5-0.1 3.3-0.1 4c0 0.7-2.1 1.3-2.2 1.2q-0.1-0.5-0.1-1.1q-0.4-0.1-0.8-0.1c-1.3 0.1-3.2-0.5-3.4-0.6c-0.3-0.1-1.5-0.8-1.7-1.5c-0.1-0.6 1.2-1 1.6-1.2c0.4-0.2 4.4-1.1 4.4-1.1c0 0-0.1-1.1-0.2-2.2q-0.1-1.2-0.7-2.2c-0.2-0.3-0.5-0.1-0.5 0.2c-0.1 0.2-0.7 2.4-0.8 2.6c-0.2 0.3-0.8 0.7-1.2 0.6c-0.4-0.2-0.4-1-0.3-1.3c0.2-0.5 0.9-1.4 1.4-2.2c0.4-0.9 0.6-1.4 1.8-1.5c1.2-0.1 1.9 1.8 2 2.2q0.6 2 0.8 4.2m-2.3 1.3c-0.1-0.3-0.2-0.4-0.6-0.4c-0.4-0.1-3.2 0.4-3.7 0.8c-0.6 0.4-0.5 0.7 0.4 1.1q1.3 0.5 2.7 0.6c0.4 0 1.3-0.1 1.3-0.8q0.1-0.6-0.1-1.3z" /><path class="s1" d="m29.3 29.6c0-0.4 0.1-0.7 0.3-1c0.2-0.3 1.3 0.1 1.6 0.3c0.2 0.1 0.9 1.3 1.2 1.6c0.4 0.3 2.3-0.4 3.5-0.4c1.2 0 2 0.9 2.1 1.4c0.1 0.5-0.3 3.4-0.5 4.1c-0.3 0.6-0.8 2.2-1.1 3.4c-0.4 1.2-1.2 0.9-1.3 0.2c0-0.4 0.1-1 0.1-1.6c0-0.6 0-3.7 0-4.2c0-0.6-0.1-1.4-0.5-1.5c-0.7-0.3-1.6 0.9-1.9 1.3c-0.3 0.4-1.7 3.6-1.8 4.6c0 0.8-0.2 1 0.3 1.9c0.4 0.7-0.7 0.9-1.2 1c-0.5 0.1-0.6-0.7-0.5-0.9c0-0.3 0-2.3 0-2.8c0-0.6 0-3.3 0-3.8c0-0.5-0.3-3.4-0.3-3.6" /><path class="s1" d="m39.9 30.7c0.3-0.3 0.8-0.8 2-0.5c0.5 0.1 1 0.6 0.6 0.9c-0.9 0.7-0.7 2.3-0.9 3c-0.3 1.4-0.3 3.2-0.5 4.5q0 1.2-0.3 2.4c-0.1 0.3-0.3 2-1 2.6c-1 0.9-2.7 0.8-3.3 0.7q-0.7-0.1-1.3-0.4c-0.4-0.1-0.9-0.2-0.9-0.5c0-1 0.8-1.2 1.3-1.1c0.4 0 1 1.2 2.6 0.5c1.2-0.5 1.4-2.5 1.7-4.2c0.1-0.5 0.3-6.6-0.1-7.2c-0.1-0.3-0.1-0.5 0.1-0.7z" /><path fill-rule="evenodd" class="s1" d="m50.2 39.2c-1.9 0.9-3.5 0.3-4.6-0.4c-1.1-0.7-2.2-1.7-2.4-2.5c-0.2-0.7 0.1-1.5 0.6-2q1.6-1.7 3.6-2.9c1.3-0.8 2.7-0.6 3 0.3c0.4 0.9 0.6 2.1 1 3.7c0.3 1.7 0 3.3-1.2 3.8zm-1.7-1.1c0.8 0 1.6-0.1 1.6-0.9c-0.1-1.5-1-3-1.3-3.4c-0.4-0.5-0.7-1.3-1.7-0.7c-0.7 0.4-1.4 0.9-1.9 1.2c-0.5 0.2-1.4 0.7-0.5 1.4c0.8 0.7 2.8 2.5 3.8 2.4z" /><path class="s1" d="m58.9 30.7q-0.1-0.4-0.3-0.8c-0.4-0.5-0.6-0.1-1 0.3c-0.4 0.5-0.8 2.2-0.8 3.1c0.1 0.9 0.2 3.1 0.3 3.7c0.1 0.7 0.3 2.4 0.1 2.7c-0.3 0.5-1.2 0.7-1.6 0.7c-0.4 0-1.6-0.2-1.9-0.4c-0.5-0.4-1-1-1.2-1.6c-0.3-1 0.7-0.8 1.1-0.3c0.1 0.2 0.7 0.8 1.2 0.9c1 0.3 0.8-0.3 0.7-1c-0.1-0.8-0.2-1.6-0.3-3c-0.2-1.3-0.4-2.8 0-4.4c0.3-1.6 1.6-2 2.3-2.2c0.7-0.2 2.3 0.1 2.5 0.6c0.4 0.8 0.2 1.8-0.2 2.5c-0.6 0.9-0.9 0-0.9-0.7" /><path class="s1" d="m51.5 25.4c-0.1-0.3-0.1-0.7 0.1-0.9c0.1-0.3 0.7-0.6 1-0.6c0.3-0.1 0.9 0.2 0.9 0.5q-0.1 0.5-0.4 0.9c-0.2 0.3-0.3 1.2-0.4 1.4c0 0.1-0.1 0.5-0.2 1c-0.1 0.2-0.4 0.2-0.4-0.2c0-0.2-0.1-0.6-0.1-0.9c-0.1-0.5-0.4-0.8-0.5-1.2z" /><path class="s1" d="m42.4 26.4c0.2 0.1 0.6 0.5 0.6 0.7c0.1 0.1 0.3 0.7 0.1 0.9q-0.3 0.5-0.8 0.8c-0.3 0.1-0.6 0.1-0.7 0c-0.2-0.3 0.1-0.7-0.2-0.8c-0.4-0.1-0.7-0.3-0.6-0.8c0.1-0.2 0.8-0.9 1.2-0.9q0.2 0 0.4 0.1z" /></g></svg>