<svg version="1.2" xmlns="http://www.w3.org/2000/svg" viewBox="0 0 20 22" width="20" height="22"><defs><clipPath clipPathUnits="userSpaceOnUse" id="cp1"><path d="m-1607-38h1920v1080h-1920z" /></clipPath></defs><style>.s0{fill:#000000}</style><g clip-path="url(#cp1)"><path fill-rule="evenodd" class="s0" d="m15.3 5.7c0 3.2-2.6 5.8-5.7 5.8c-3.2 0-5.8-2.6-5.8-5.8c0-3.1 2.6-5.7 5.8-5.7c3.1 0 5.7 2.6 5.7 5.7zm3.9 15.4h-2c0-4.3-3.4-7.7-7.6-7.7c-4.3 0-7.7 3.4-7.7 7.7h-1.9c0-5.3 4.3-9.6 9.6-9.6c5.3 0 9.6 4.3 9.6 9.6zm-13.5-15.4c0 2.2 1.8 3.9 3.9 3.9c2.1 0 3.8-1.7 3.8-3.9c0-2.1-1.7-3.8-3.8-3.8c-2.1 0-3.9 1.7-3.9 3.8z" /></g></svg>