<svg xmlns="http://www.w3.org/2000/svg" width="11.768" height="10.967" viewBox="0 0 11.768 10.967">
  <path id="icons8_call_1" d="M3.76,2.411c.608.71.978,1.433.37,2.135l-.366.42c-.267.307-1.512.877,1.026,3.082s2.928.893,3.191.585l.368-.422c.608-.7,1.374-.434,2.163.07l.477.3c.786.506,1.3,1.057.7,1.758l-.332.377A3.544,3.544,0,0,1,9,12.1c-1.67.253-3.584-.544-5.683-2.37S.165,6.126.183,4.434A3.563,3.563,0,0,1,1.227,1.915l.332-.38c.606-.7,1.225-.264,1.833.447Z" transform="translate(-0.183 -1.182)" fill="#af4224"/>
</svg>
