<svg xmlns="http://www.w3.org/2000/svg" width="15.675" height="14.108" viewBox="0 0 15.675 14.108">
  <path id="icons8_open_door_1" d="M4.351,3a.784.784,0,0,0-.784.784V15.54H2.784a.784.784,0,0,0,0,1.568h8.621a.784.784,0,0,0,.784-.784V5.351H14.54V17.108h2.351a.784.784,0,1,0,0-1.568h-.784V4.568a.784.784,0,0,0-.784-.784H12.189A.784.784,0,0,0,11.405,3ZM9.446,9.27h.784a.392.392,0,0,1,.392.392v.784a.392.392,0,0,1-.392.392H9.446a.392.392,0,0,1-.392-.392V9.662A.392.392,0,0,1,9.446,9.27Z" transform="translate(-2 -3)" fill="#808957"/>
</svg>
