<svg xmlns="http://www.w3.org/2000/svg" width="23.181" height="18.966" viewBox="0 0 23.181 18.966">
  <path id="icons8_truck" d="M2.054,3A1.057,1.057,0,0,0,1,4.054v13.7A1.057,1.057,0,0,0,2.054,18.8H3.161a3.67,3.67,0,0,0,7.269,0h4.322a3.67,3.67,0,0,0,7.269,0h1.107a1.057,1.057,0,0,0,1.054-1.054V12.81a3.114,3.114,0,0,0-.473-1.665l-2.14-3.478a3.2,3.2,0,0,0-2.7-1.506H14.7V4.054A1.057,1.057,0,0,0,13.644,3ZM14.7,8.268h4.173a1.038,1.038,0,0,1,.9.506l2.149,3.476a1.046,1.046,0,0,1,.158.56V16.7H21.7a3.665,3.665,0,0,0-6.635,0H14.7ZM6.8,16.7a1.58,1.58,0,1,1-1.58,1.58A1.582,1.582,0,0,1,6.8,16.7Zm11.59,0a1.58,1.58,0,1,1-1.58,1.58A1.582,1.582,0,0,1,18.385,16.7Z" transform="translate(-1 -3)" fill="#747d42"/>
</svg>
